<svg width="800" height="600" viewBox="0 0 800 600" fill="none" xmlns="http://www.w3.org/2000/svg">
    <!-- Background grid -->
    <rect width="800" height="600" fill="#EBF4FF" />
    <pattern id="grid" x="0" y="0" width="20" height="20" patternUnits="userSpaceOnUse">
        <rect width="20" height="20" fill="#EBF4FF" />
        <path d="M 0 0 L 20 0" stroke="#dbeafe" stroke-width="1" />
        <path d="M 0 0 L 0 20" stroke="#dbeafe" stroke-width="1" />
    </pattern>
    <rect width="800" height="600" fill="url(#grid)" />

    <!-- Main device shape -->
    <rect x="150" y="100" width="500" height="350" rx="15" fill="#ffffff" stroke="#7c86e3" stroke-width="8" />
    <rect x="165" y="115" width="470" height="300" rx="5" fill="#4338ca" />

    <!-- Screen elements -->
    <!-- Header -->
    <rect x="185" y="135" width="430" height="40" rx="5" fill="#312e81" />
    <circle cx="210" cy="155" r="10" fill="#6366f1" />
    <rect x="235" y="150" width="80" height="10" rx="3" fill="#a5b4fc" />
    <rect x="335" y="150" width="80" height="10" rx="3" fill="#818cf8" />
    <rect x="435" y="150" width="80" height="10" rx="3" fill="#818cf8" />
    <rect x="535" y="150" width="60" height="10" rx="3" fill="#818cf8" />

    <!-- Main content -->
    <rect x="185" y="195" width="270" height="200" rx="5" fill="#e0e7ff" />
    <rect x="205" y="215" width="230" height="20" rx="3" fill="#6366f1" />
    <rect x="205" y="245" width="190" height="10" rx="3" fill="#818cf8" />
    <rect x="205" y="265" width="210" height="10" rx="3" fill="#818cf8" />
    <rect x="205" y="285" width="180" height="10" rx="3" fill="#818cf8" />
    <rect x="205" y="315" width="100" height="30" rx="5" fill="#4f46e5" />
    <rect x="215" y="325" width="80" height="10" rx="3" fill="#ffffff" />

    <!-- Sidebar content -->
    <rect x="475" y="195" width="140" height="200" rx="5" fill="#e0e7ff" />
    <rect x="495" y="215" width="100" height="15" rx="3" fill="#6366f1" />
    <rect x="495" y="240" width="100" height="10" rx="3" fill="#818cf8" />
    <rect x="495" y="260" width="100" height="10" rx="3" fill="#818cf8" />
    <rect x="495" y="280" width="100" height="10" rx="3" fill="#818cf8" />
    <circle cx="505" cy="315" r="5" fill="#4f46e5" />
    <rect x="515" y="310" width="70" height="10" rx="3" fill="#818cf8" />
    <circle cx="505" cy="335" r="5" fill="#4f46e5" />
    <rect x="515" y="330" width="70" height="10" rx="3" fill="#818cf8" />
    <circle cx="505" cy="355" r="5" fill="#4f46e5" />
    <rect x="515" y="350" width="70" height="10" rx="3" fill="#818cf8" />

    <!-- Decorative elements -->
    <circle cx="650" cy="450" r="80" fill="#3730a3" fill-opacity="0.3" />
    <circle cx="150" cy="150" r="60" fill="#4f46e5" fill-opacity="0.3" />
    <circle cx="700" cy="200" r="40" fill="#6366f1" fill-opacity="0.3" />
    <circle cx="250" cy="500" r="50" fill="#6366f1" fill-opacity="0.3" />

    <!-- Dots decorations -->
    <circle cx="100" cy="400" r="4" fill="#4f46e5" />
    <circle cx="120" cy="400" r="4" fill="#4f46e5" />
    <circle cx="140" cy="400" r="4" fill="#4f46e5" />
    <circle cx="100" cy="420" r="4" fill="#4f46e5" />
    <circle cx="120" cy="420" r="4" fill="#4f46e5" />
    <circle cx="140" cy="420" r="4" fill="#4f46e5" />
    <circle cx="100" cy="440" r="4" fill="#4f46e5" />
    <circle cx="120" cy="440" r="4" fill="#4f46e5" />
    <circle cx="140" cy="440" r="4" fill="#4f46e5" />

    <circle cx="660" cy="100" r="4" fill="#4f46e5" />
    <circle cx="680" cy="100" r="4" fill="#4f46e5" />
    <circle cx="700" cy="100" r="4" fill="#4f46e5" />
    <circle cx="660" cy="120" r="4" fill="#4f46e5" />
    <circle cx="680" cy="120" r="4" fill="#4f46e5" />
    <circle cx="700" cy="120" r="4" fill="#4f46e5" />
    <circle cx="660" cy="140" r="4" fill="#4f46e5" />
    <circle cx="680" cy="140" r="4" fill="#4f46e5" />
    <circle cx="700" cy="140" r="4" fill="#4f46e5" />

    <!-- Abstract shape decorations -->
    <path d="M50 200 L100 220 L80 270 L30 250 Z" fill="#818cf8" fill-opacity="0.5" />
    <path d="M700 350 L750 370 L730 420 L680 400 Z" fill="#818cf8" fill-opacity="0.5" />
    <path d="M400 50 L430 30 L460 50 L430 70 Z" fill="#818cf8" fill-opacity="0.5" />
</svg>
